<?xml version="1.0" encoding="utf-8"?>
<!-- Generator: Adobe Illustrator 16.0.0, SVG Export Plug-In . SVG Version: 6.00 Build 0)  -->
<!DOCTYPE svg PUBLIC "-//W3C//DTD SVG 1.1//EN" "http://www.w3.org/Graphics/SVG/1.1/DTD/svg11.dtd">
<svg version="1.1" id="Capa_1" xmlns="http://www.w3.org/2000/svg" xmlns:xlink="http://www.w3.org/1999/xlink" x="0px" y="0px"
	 width="566.93px" height="283.46px" viewBox="0 0 566.93 283.46" enable-background="new 0 0 566.93 283.46" xml:space="preserve">
<path opacity="0.6" fill="#3A2821" d="M407.479,53.149H159.451v177.162h248.027V53.149z M271.654,218.5v-23.622h23.622V218.5
	H271.654z M318.897,218.5v-23.622h23.622V218.5H318.897z M366.141,218.5v-23.622h23.621V218.5H366.141z M224.411,218.5v-23.622
	h23.622V218.5H224.411z M177.167,218.5v-23.622h23.622V218.5H177.167z M271.654,88.581V64.959h23.622v23.622H271.654z
	 M318.897,88.581V64.959h23.622v23.622H318.897z M366.141,88.581V64.959h23.621v23.622H366.141z M224.411,88.581V64.959h23.622
	v23.622H224.411z M177.167,88.581V64.959h23.622v23.622H177.167z"/>
</svg>
