<?xml version="1.0" encoding="utf-8"?>
<!-- Generator: Adobe Illustrator 16.0.0, SVG Export Plug-In . SVG Version: 6.00 Build 0)  -->
<!DOCTYPE svg PUBLIC "-//W3C//DTD SVG 1.1//EN" "http://www.w3.org/Graphics/SVG/1.1/DTD/svg11.dtd">
<svg version="1.1" id="Capa_1" xmlns="http://www.w3.org/2000/svg" xmlns:xlink="http://www.w3.org/1999/xlink" x="0px" y="0px"
	 width="566.93px" height="283.46px" viewBox="0 0 566.93 283.46" enable-background="new 0 0 566.93 283.46" xml:space="preserve">
<g>
	<path opacity="0.6" fill="#3A2821" enable-background="new    " d="M389.765,135.82v70.87c0-12.99-10.63-23.62-23.62-23.62v-47.25
		c0-45.47-37.21-82.67-82.68-82.67c-45.47,0-82.68,37.2-82.68,82.67v47.25c-12.99,0-23.62,10.63-23.62,23.62v-70.87
		c0-58.46,47.84-106.29,106.3-106.29S389.765,77.36,389.765,135.82z"/>
	<path opacity="0.6" fill="#3A2821" enable-background="new    " d="M389.765,206.69v23.62c0,12.99-10.63,23.62-23.62,23.62h-23.63
		v-70.86h23.63C379.135,183.07,389.765,193.7,389.765,206.69z"/>
	<path opacity="0.6" fill="#3A2821" enable-background="new    " d="M224.415,183.07v70.86h-23.63c-12.99,0-23.62-10.63-23.62-23.62
		v-23.62c0-12.99,10.63-23.62,23.62-23.62H224.415z"/>
</g>
</svg>
