<?xml version="1.0" encoding="utf-8"?>
<!-- Generator: Adobe Illustrator 16.0.0, SVG Export Plug-In . SVG Version: 6.00 Build 0)  -->
<!DOCTYPE svg PUBLIC "-//W3C//DTD SVG 1.1//EN" "http://www.w3.org/Graphics/SVG/1.1/DTD/svg11.dtd">
<svg version="1.1" id="Capa_1" xmlns="http://www.w3.org/2000/svg" xmlns:xlink="http://www.w3.org/1999/xlink" x="0px" y="0px"
	 width="566.93px" height="283.46px" viewBox="0 0 566.93 283.46" enable-background="new 0 0 566.93 283.46" xml:space="preserve">
<g>
	<path opacity="0.6" fill="#3A2821" d="M188.978,242.123V41.338c0-12.992,10.63-23.622,23.622-23.622h141.73
		c12.992,0,23.621,10.63,23.621,23.622v200.785c0,12.991-10.629,23.621-23.621,23.621H212.6
		C199.608,265.744,188.978,255.114,188.978,242.123z"/>
	<path opacity="0.6" fill="#EEEEEE" d="M348.424,35.433H218.505c-3.543,0-5.906,2.362-5.906,5.905v171.257
		c0,3.543,2.362,5.905,5.906,5.905h129.918c3.544,0,5.906-2.362,5.906-5.905V41.338C354.33,37.794,351.968,35.433,348.424,35.433z"
		/>
	<rect x="259.843" y="236.216" opacity="0.6" fill="#EEEEEE" width="47.243" height="11.811"/>
	<g opacity="0.6">
		<rect x="236.222" y="64.959" fill="#3A2821" width="94.486" height="17.716"/>
		<rect x="236.222" y="106.297" fill="#3A2821" width="94.486" height="11.811"/>
		<rect x="236.222" y="129.919" fill="#3A2821" width="70.864" height="11.811"/>
		<rect x="236.222" y="153.541" fill="#3A2821" width="94.486" height="11.811"/>
		<rect x="236.222" y="177.163" fill="#3A2821" width="70.864" height="11.811"/>
	</g>
</g>
</svg>
