<?xml version="1.0" encoding="utf-8"?>
<!-- Generator: Adobe Illustrator 16.0.0, SVG Export Plug-In . SVG Version: 6.00 Build 0)  -->
<!DOCTYPE svg PUBLIC "-//W3C//DTD SVG 1.1//EN" "http://www.w3.org/Graphics/SVG/1.1/DTD/svg11.dtd">
<svg version="1.1" id="Capa_1" xmlns="http://www.w3.org/2000/svg" xmlns:xlink="http://www.w3.org/1999/xlink" x="0px" y="0px"
	 width="566.93px" height="283.46px" viewBox="0 0 566.93 283.46" enable-background="new 0 0 566.93 283.46" xml:space="preserve">
<g>
	<path opacity="0.6" fill="#3A2821" d="M282.285,120.47l16.96,6.95c-3.75,7.08-8.101,15.291-11.84,22.39
		c-3.63,6.91-6.69,12.77-8.07,15.54c-1.9,3.78-12.11,18.62-23.67,35.07c-17.35,24.659-37.75,52.92-37.75,52.92
		c-1.77,4.14-5.91,6.5-10.63,6.5c-1.77,0-3.54-0.591-5.31-1.181c-5.91-2.96-8.86-10.04-5.91-15.949l70.27-151.181
		c3.55-7.67,13-11.22,20.67-7.67l13,5.9c5.25,2.26,8.36,6.89,9.16,11.95l-12.12-6.63c-6.49-3.55-15.35-2.37-19.49,5.31
		C272.835,108.07,275.195,117.52,282.285,120.47z"/>
	<circle opacity="0.6" fill="#3A2821" cx="307.086" cy="53.149" r="29.527"/>
	<path opacity="0.6" fill="#3A2821" d="M320.075,172.44c0,4.72-3.54,9.45-8.261,10.63l-56.149,17.351
		c11.56-16.45,21.77-31.29,23.67-35.07c1.38-2.771,4.44-8.63,8.07-15.54l25.59,11.41C317.125,162.99,320.075,167.71,320.075,172.44z
		"/>
	<path opacity="0.6" fill="#3A2821" d="M308.265,110.43c0,0-3.979,7.47-9.02,16.99l-16.96-6.95c-7.09-2.95-9.45-12.4-4.73-20.08
		c4.14-7.68,13-8.86,19.49-5.31l12.12,6.63C309.635,104.6,309.345,107.63,308.265,110.43z"/>
	<path opacity="0.6" fill="#3A2821" d="M379.725,109.25l-35.43,29.53c-2.37,1.77-4.73,2.95-7.68,2.95c-1.771,0-3.54-0.59-5.32-1.18
		l-32.05-13.13c5.04-9.52,9.02-16.99,9.02-16.99c1.08-2.8,1.37-5.83,0.9-8.72l25.68,14.04l29.521-24.81
		c4.729-4.13,12.409-2.95,16.54,1.77C385.035,98.03,384.445,105.12,379.725,109.25z"/>
	<path opacity="0.6" fill="#3A2821" d="M210.828,136.415l20.079-30.118l27.165,3.543l8.858-18.307
		c2.362-5.314,7.086-8.268,12.401-8.858c-0.59,0-1.181,0-1.181,0h-53.148c-4.134,0-7.677,1.771-10.04,5.315l-23.622,35.433
		c-3.543,5.315-2.362,12.992,3.543,16.535c1.181,1.181,3.543,1.771,5.905,1.771C204.332,141.73,208.466,139.958,210.828,136.415z"/>
</g>
</svg>
